# AST/ASF file generated using VICON BodyLanguage
# -----------------------------------------------
:version 1.10
:name VICON
:units
  mass 1.0
  length 0.45
  angle deg
:documentation
   .ast/.asf automatically generated from VICON data using
   VICON BodyBuilder and BodyLanguage model FoxedUp or BRILLIANT.MOD
:root
   order TX TY TZ RX RY RZ
   axis XYZ
   position 0 0 0  
   orientation 0 0 0 
:bonedata
  begin
     id 1 
     name lhipjoint
     direction 0.645422 -0.672597 0.361999 
     length 2.39934 
     axis 0 0 0  XYZ
  end
  begin
     id 2 
     name lfemur
     direction 0.34202 -0.939693 0  
     length 6.58112  
     axis 0 0 20  XYZ
    dof rx ry rz
    limits (-160.0 20.0)
           (-70.0 70.0)
           (-60.0 70.0)
  end
  begin
     id 3 
     name ltibia
     direction 0.34202 -0.939693 0   
     length 7.02673   
     axis 0 0 20   XYZ
    dof rx
    limits (-10.0 170.0)
  end
  begin
     id 4 
     name lfoot
     direction 0.0835106 -0.229444 0.969733   
     length 2.08772   
     axis -90 7.62852e-016 20   XYZ
    dof rx rz
    limits (-45.0 90.0)
           (-70.0 20.0)
  end
  begin
     id 5 
     name ltoes
     direction 1.5358e-011 -4.21925e-011 1   
     length 1.04844   
     axis -90 7.62852e-016 20   XYZ
    dof rx
    limits (-90.0 20.0)
  end
  begin
     id 6 
     name rhipjoint
     direction -0.644959 -0.672941 0.362185   
     length 2.39812  
     axis 0 0 0  XYZ 
  end
  begin
     id 7 
     name rfemur
     direction -0.34202 -0.939693 0   
     length 6.67015   
     axis 0 0 -20   XYZ
    dof rx ry rz
    limits (-160.0 20.0)
           (-70.0 70.0)
           (-70.0 60.0)
  end
  begin
     id 8 
     name rtibia
     direction -0.34202 -0.939693 0   
     length 7.35735   
     axis 0 0 -20   XYZ
    dof rx
    limits (-10.0 170.0)
 end
 begin
     id 9 
     name rfoot
     direction -0.0670769 -0.184292 0.98058   
     length 2.25469  
     axis -90 -7.62852e-016 -20   XYZ
    dof rx rz
    limits (-45.0 90.0)
           (-20.0 70.0)
  end
  begin
     id 10 
     name rtoes
     direction -1.53575e-011 -4.21908e-011 1   
     length 1.13399   
     axis -90 -7.62852e-016 -20   XYZ
    dof rx
    limits (-90.0 20.0)
  end
  begin
     id 11 
     name lowerback
     direction -0.0188328 0.993434 -0.112847   
     length 2.27656   
     axis 0 0 0   XYZ
    dof rx ry rz
    limits (-20.0 45.0)
           (-30.0 30.0)
           (-30.0 30.0)
  end
  begin
     id 12 
     name upperback
     direction 0.00983139 0.998968 -0.04435   
     length 2.28631   
     axis 0 0 0   XYZ
    dof rx ry rz
    limits (-20.0 45.0)
           (-30.0 30.0)
           (-30.0 30.0)
  end
  begin
     id 13 
     name thorax
     direction 0.0177718 0.999807 0.00833073   
     length 2.30999   
     axis 0 0 0   XYZ
    dof rx ry rz
    limits (-20.0 45.0)
           (-30.0 30.0)
           (-30.0 30.0)
  end
  begin
     id 14 
     name lowerneck
     direction -0.0835025 0.993181 0.0813558   
     length 1.39447   
     axis 0 0 0   XYZ
    dof rx ry rz
    limits (-20.0 45.0)
           (-30.0 30.0)
           (-30.0 30.0)
  end
  begin
     id 15 
     name upperneck
     direction 0.210059 0.976535 0.0474817   
     length 1.39882   
     axis 0 0 0   XYZ
    dof rx ry rz
    limits (-20.0 45.0)
           (-30.0 30.0)
           (-30.0 30.0)
  end
  begin
     id 16
     name head
     direction 0.0780891 0.996944 -0.00207154  
     length 1.41828  
     axis 0 0 0   XYZ
    dof rx ry rz
    limits (-20.0 45.0)
           (-30.0 30.0)
           (-30.0 30.0)
  end
  begin
     id 17 
     name lclavicle
     direction 0.982414 0.166355 -0.0847829  
     length 3.57922  
     axis 0 0 0   XYZ
    dof ry rz
    limits (-20.0 10.0)
           (0.0 20.0)
  end
  begin
     id 18 
     name lhumerus
     direction 1 -4.48975e-011 5.47647e-028   
     length 4.76405   
     axis -180 -30 -90   XYZ
    dof rx ry rz
    limits (-60.0 90.0)
           (-90.0 90.0)
           (-90.0 90.0)
  end
  begin
     id 19
     name lradius
     direction 1 -4.48949e-011 -8.32142e-027   
     length 3.13759   
     axis -180 -30 -90   XYZ
    dof rx
    limits (-10.0 170.0)
  end
  begin
     id 20
     name lwrist
     direction 1 -4.48978e-011 -1.32705e-026   
     length 1.56879   
     axis 9.60836e-015 90 90   XYZ
    dof ry
    limits (-180.0 0.0)
 end
  begin
     id 21 
     name lhand
     direction 1 -4.48975e-011 -2.65409e-026   
     length 0.732262   
     axis 1.69354e-014 90 90   XYZ
    dof rx rz
    limits (-90.0 90.0)
           (-45.0 45.0)
  end
  begin
     id 22 
     name lfingers
     direction 1 -4.48923e-011 -5.30819e-026   
     length 0.590368   
     axis 3.38708e-014 90 90   XYZ
    dof rx
    limits (0.0 90.0)
  end
  begin
     id 23
     name lthumb
     direction 0.707107 -6.34914e-011 0.707107   
     length 0.847654   
     axis -90 45 2.85299e-015   XYZ
    dof rx rz
    limits (-45.0 45.0)
           (-45.0 45.0)
  end
  begin
     id 24 
     name rclavicle
     direction -0.963658 0.245183 -0.106063   
     length 3.43472  
     axis 0 0 0   XYZ 
    dof ry rz
    limits (-10.0 20.0)
           (-20.0 0.0)
  end
  begin
     id 25 
     name rhumerus
     direction -1 -4.48963e-011 -1.64784e-027  
     length 5.10161   
     axis -180 30 90   XYZ
    dof rx ry rz
    limits (-90.0 60.0)
           (-90.0 90.0)
           (-90.0 90.0)
  end
  begin
     id 26 
     name rradius
     direction -1 -4.48969e-011 -2.87943e-027   
     length 3.23267   
     axis -180 30 90   XYZ
    dof rx
    limits (-10.0 170.0)
  end
  begin
     id 27 
     name rwrist
     direction -1 -4.48982e-011 -1.32705e-026   
     length 1.61633   
     axis 9.60836e-015 -90 -90   XYZ
    dof ry
    limits (-180.0 0.0)
  end
  begin
     id 28
     name rhand
     direction -1 -4.48963e-011 -2.65409e-026   
     length 0.702   
     axis 1.69354e-014 -90 -90   XYZ
    dof rx rz
    limits (-90.0 90.0)
           (-45.0 45.0)
  end
  begin
     id 29
     name rfingers
     direction -1 -4.48934e-011 -5.30819e-026   
     length 0.565971   
     axis 3.38708e-014 -90 -90   XYZ
    dof rx
    limits (0.0 90.0)
  end
  begin
     id 30
     name rthumb
     direction -0.707107 -6.34908e-011 0.707107   
     length 0.812624   
     axis -90 -45 -2.85299e-015   XYZ
    dof rx rz
    limits (-45.0 45.0)
           (-45.0 45.0)
  end
:hierarchy
  begin
    root lhipjoint rhipjoint lowerback
    lhipjoint lfemur
    lfemur ltibia
    ltibia lfoot
    lfoot ltoes
    rhipjoint rfemur
    rfemur rtibia
    rtibia rfoot
    rfoot rtoes
    lowerback upperback
    upperback thorax
    thorax lowerneck lclavicle rclavicle
    lowerneck upperneck
    upperneck head
    lclavicle lhumerus
    lhumerus lradius
    lradius lwrist
    lwrist lhand lthumb
    lhand lfingers
    rclavicle rhumerus
    rhumerus rradius
    rradius rwrist
    rwrist rhand rthumb
    rhand rfingers
  end

#!OML:ASF \\sashay\E\basketball\basketball\Project 1\Capture day 1\Session 1\Subject.ASF
:FULLY-SPECIFIED
:DEGREES
33
root 30.6908 15.4732 0.603797 -175.116 -70.6857 172.758
lowerback 4.27859 0.0386495 -5.6671
upperback 7.90497 -0.362828 0.631974
thorax 5.88671 -0.685448 3.8145
lowerneck -0.283524 -3.3228 -14.7213
upperneck -8.9314 -3.76005 21.1162
head -1.73852 -2.22294 9.14354
rclavicle 6.01324e-015 3.18055e-015
rhumerus -25.6587 -16.1885 -84.4747
rradius 28.5235
rwrist 11.7667
rhand -16.7414 25.88
rfingers 7.12502
rthumb 9.48489 -3.88657
lclavicle 6.01324e-015 3.18055e-015
lhumerus -22.0415 10.4735 92.9066
lradius 22.2961
lwrist -3.55114
lhand -15.5186 24.9326
lfingers 7.12502
lthumb 10.6645 54.642
rfemur -11.3036 0.216961 15.3484
rtibia 38.5681
rfoot -20.0974 -21.6471
rtoes -26.8328
lfemur -5.68347 5.20304 -19.4907
ltibia 34.0693
lfoot -24.1174 17.3711
ltoes -12.3854
34
root 30.687 15.4712 0.59895 -175.309 -70.782 172.964
lowerback 4.48069 0.0335447 -5.63914
upperback 7.93364 -0.389305 0.694643
thorax 5.80574 -0.699805 3.86542
lowerneck -0.48433 -3.21206 -14.4912
upperneck -9.06891 -3.58039 20.8206
head -1.7912 -2.12603 9.00301
rclavicle -1.48095e-014 9.74045e-015
rhumerus -25.6334 -16.2765 -84.3825
rradius 28.4197
rwrist 11.7249
rhand -16.6802 25.8715
rfingers 7.12502
rthumb 9.54389 -3.89239
lclavicle -1.48095e-014 9.74045e-015
lhumerus -21.8049 10.693 92.9218
lradius 21.938
lwrist -3.91229
lhand -15.6592 24.6122
lfingers 7.12502
lthumb 10.5289 54.3285
rfemur -11.296 -0.0373308 15.4165
rtibia 38.6197
rfoot -20.0153 -21.5734
rtoes -27.1577
lfemur -5.70993 5.33564 -19.344
ltibia 34.1273
lfoot -24.0618 17.2319
ltoes -12.7324
35
root 30.6833 15.4693 0.596182 -174.9 -70.7866 172.592
lowerback 4.70782 0.0390006 -5.78905
upperback 7.84954 -0.396754 0.694435
thorax 5.59061 -0.702676 3.95162
lowerneck -0.570128 -3.15909 -14.4326
upperneck -8.84518 -3.5232 20.6952
head -1.72915 -2.08307 8.94207
rclavicle -3.13086e-015 -2.38542e-015
rhumerus -25.8381 -16.1752 -84.3052
rradius 28.4259
rwrist 11.5927
rhand -16.7547 26.0236
rfingers 7.12502
rthumb 9.47207 -3.74348
lclavicle -3.13086e-015 -2.38542e-015
lhumerus -21.8204 10.7759 92.9274
lradius 21.7383
lwrist -4.02342
lhand -15.8495 24.2962
lfingers 7.12502
lthumb 10.3454 54.0217
rfemur -11.3938 -0.25134 15.2528
rtibia 38.7062
rfoot -19.872 -21.5109
rtoes -27.5434
lfemur -5.77333 5.38105 -19.4636
ltibia 34.1675
lfoot -24.1423 17.1723
ltoes -12.706
36
root 30.6806 15.4679 0.592433 -174.316 -70.7534 172.029
lowerback 4.78114 0.0517719 -5.94012
upperback 7.88132 -0.385956 0.603697
thorax 5.5841 -0.705188 3.94134
lowerneck -0.64958 -3.00693 -14.2555
upperneck -8.89089 -3.30629 20.4816
head -1.77876 -1.97145 8.84044
rclavicle 5.96354e-015 7.7526e-015
rhumerus -25.8736 -16.0691 -84.3955
rradius 28.4653
rwrist 11.6273
rhand -16.9391 26.1863
rfingers 7.12502
rthumb 9.29412 -3.58885
lclavicle 5.96354e-015 7.7526e-015
lhumerus -21.7898 10.6372 92.8856
lradius 21.8608
lwrist -3.88628
lhand -15.6953 24.6242
lfingers 7.12502
lthumb 10.4941 54.3423
rfemur -11.4989 -0.345669 15.038
rtibia 38.8182
rfoot -20.0562 -21.3668
rtoes -26.8954
lfemur -5.81555 5.58766 -19.6189
ltibia 34.1997
lfoot -24.1592 16.9626
ltoes -12.7422
37
root 30.6767 15.4663 0.588286 -173.995 -70.7519 171.748
lowerback 4.75455 0.0482256 -6.01991
upperback 7.99793 -0.394561 0.566275
thorax 5.72699 -0.723906 3.94548
lowerneck -0.749914 -2.85641 -14.1634
upperneck -9.07196 -3.07648 20.3211
head -1.8613 -1.85631 8.77584
rclavicle 4.2043e-014 -2.16675e-014
rhumerus -25.7442 -15.9861 -84.4873
rradius 28.4856
rwrist 11.6701
rhand -16.9704 26.4815
rfingers 7.12502
rthumb 9.26389 -3.295
lclavicle 4.2043e-014 -2.16675e-014
lhumerus -21.6816 10.6187 92.8955
lradius 22.1051
lwrist -3.79067
lhand -15.5308 24.7584
lfingers 7.12502
lthumb 10.6527 54.4684
rfemur -11.5976 -0.48405 14.9223
rtibia 38.9432
rfoot -20.6325 -21.016
rtoes -25.1497
lfemur -5.87959 5.99409 -19.6287
ltibia 34.2398
lfoot -23.9757 16.6793
ltoes -13.4
38
root 30.6736 15.4628 0.584236 -174.134 -70.749 171.971
lowerback 4.6947 0.0651185 -5.93455
upperback 8.18279 -0.377262 0.586342
thorax 5.95645 -0.728349 3.91652
lowerneck -1.11357 -2.76145 -14.0448
upperneck -9.06749 -2.91988 20.082
head -1.8347 -1.75852 8.66805
rclavicle 1.78409e-014 -1.98785e-015
rhumerus -25.4663 -15.9758 -84.6125
rradius 28.5055
rwrist 11.541
rhand -16.8521 26.4507
rfingers 7.12502
rthumb 9.37804 -3.32065
lclavicle 1.78409e-014 -1.98785e-015
lhumerus -21.4611 10.4443 92.9866
lradius 22.3329
lwrist -3.72301
lhand -15.591 24.6123
lfingers 7.12502
lthumb 10.5947 54.3252
rfemur -11.7214 -0.615862 14.9921
rtibia 39.0647
rfoot -20.8599 -20.8624
rtoes -24.4714
lfemur -6.00059 6.44667 -19.4449
ltibia 34.3108
lfoot -23.8774 16.2384
ltoes -13.4922
39
root 30.6717 15.4584 0.58022 -174.136 -70.7076 172.064
lowerback 4.9975 0.0978765 -5.98535
upperback 8.11475 -0.35818 0.656807
thorax 5.71098 -0.715078 4.0219
lowerneck -1.26007 -2.67524 -14.0995
upperneck -8.9956 -2.79752 19.9168
head -1.8149 -1.67998 8.61903
rclavicle 1.86361e-014 -2.36554e-014
rhumerus -25.5472 -15.9006 -84.5291
rradius 28.4736
rwrist 11.5193
rhand -16.7428 26.0424
rfingers 7.12502
rthumb 9.48354 -3.72416
lclavicle 1.86361e-014 -2.36554e-014
lhumerus -21.6394 10.1287 93.1232
lradius 22.581
lwrist -3.44583
lhand -15.6498 24.8155
lfingers 7.12502
lthumb 10.538 54.5314
rfemur -11.8743 -0.7001 15.0198
rtibia 39.1786
rfoot -20.679 -20.9316
rtoes -24.9655
lfemur -6.14771 6.78561 -19.3403
ltibia 34.4184
lfoot -23.8914 15.851
ltoes -13.1671
40
root 30.6652 15.4531 0.577135 -174.111 -70.6254 172.069
lowerback 5.1764 0.141767 -5.98875
upperback 8.18136 -0.31813 0.642641
thorax 5.67631 -0.699205 4.00933
lowerneck -1.64007 -2.59502 -13.7316
upperneck -8.88366 -2.68007 19.3973
head -1.75947 -1.59632 8.36887
rclavicle 9.69075e-015 -1.35174e-014
rhumerus -25.4282 -15.9553 -84.5963
rradius 28.3544
rwrist 11.575
rhand -16.8508 25.9227
rfingers 7.12502
rthumb 9.37933 -3.84866
lclavicle 9.69075e-015 -1.35174e-014
lhumerus -21.5405 9.69641 93.1958
lradius 22.6627
lwrist -2.97752
lhand -15.7068 25.0781
lfingers 7.12502
lthumb 10.483 54.7968
rfemur -11.9653 -0.745414 15.0002
rtibia 39.298
rfoot -20.7224 -20.8432
rtoes -24.9075
lfemur -6.20758 7.05014 -19.2976
ltibia 34.5408
lfoot -23.8671 15.7103
ltoes -13.3511
41
root 30.6562 15.4477 0.573889 -174.326 -70.5643 172.311
lowerback 5.24791 0.185986 -5.76077
upperback 8.30321 -0.263905 0.510271
thorax 5.75373 -0.664224 3.7411
lowerneck -1.67302 -2.55993 -13.3795
upperneck -9.16743 -2.61111 19.372
head -1.85277 -1.58443 8.30476
rclavicle -9.82493e-014 2.96189e-014
rhumerus -25.2889 -16.2115 -84.8739
rradius 28.2312
rwrist 11.5948
rhand -17.1004 26.4165
rfingers 7.12502
rthumb 9.13849 -3.36552
lclavicle -9.82493e-014 2.96189e-014
lhumerus -21.3478 9.15284 93.0766
lradius 22.6253
lwrist -2.55213
lhand -15.8757 25.1487
lfingers 7.12502
lthumb 10.3201 54.8755
rfemur -12.0288 -0.78088 15.0705
rtibia 39.4311
rfoot -20.9034 -20.701
rtoes -24.4538
lfemur -6.2417 7.39406 -19.1394
ltibia 34.6635
lfoot -23.8512 15.457
ltoes -13.2813
